<svg width="1200" height="760" viewBox="0 0 1200 760" fill="none" xmlns="http://www.w3.org/2000/svg">
  <defs>
    <linearGradient id="bg" x1="0" y1="0" x2="1200" y2="760" gradientUnits="userSpaceOnUse">
      <stop stop-color="#FAFCFF"/>
      <stop offset="1" stop-color="#E3F1F8"/>
    </linearGradient>
    <linearGradient id="tile" x1="172" y1="102" x2="1016" y2="656" gradientUnits="userSpaceOnUse">
      <stop stop-color="#FFFFFF"/>
      <stop offset="1" stop-color="#F3FAFE"/>
    </linearGradient>
    <linearGradient id="accent" x1="752" y1="176" x2="1010" y2="548" gradientUnits="userSpaceOnUse">
      <stop stop-color="#FFD9CF"/>
      <stop offset="1" stop-color="#F5A48F"/>
    </linearGradient>
    <filter id="shadow" x="58" y="46" width="1084" height="668" filterUnits="userSpaceOnUse" color-interpolation-filters="sRGB">
      <feDropShadow dx="0" dy="30" stdDeviation="34" flood-color="#0A2A44" flood-opacity="0.16"/>
    </filter>
  </defs>
  <rect width="1200" height="760" fill="url(#bg)"/>
  <g filter="url(#shadow)">
    <rect x="122" y="86" width="956" height="588" rx="38" fill="url(#tile)"/>
  </g>
  <g opacity="0.45">
    <path d="M186 176H724M186 306H724M186 436H724M186 566H724" stroke="#D8EAF6" stroke-width="2"/>
    <path d="M306 126V618M446 126V618M586 126V618" stroke="#D8EAF6" stroke-width="2"/>
  </g>
  <rect x="206" y="172" width="452" height="364" rx="40" fill="#FFFFFF" stroke="#BFDDF0" stroke-width="3"/>
  <path d="M248 402C248 364 279 333 317 333H548C586 333 617 364 617 402V440C617 503 566 554 503 554H362C299 554 248 503 248 440V402Z" fill="#EAF6FF"/>
  <path d="M248 430H617" stroke="#1B638D" stroke-width="12" stroke-linecap="round"/>
  <path d="M312 333V246C312 212 340 184 374 184H408" stroke="#1B638D" stroke-width="11" stroke-linecap="round"/>
  <path d="M268 474H594" stroke="#7DC242" stroke-width="16" stroke-linecap="round"/>
  <rect x="740" y="162" width="270" height="396" rx="38" fill="url(#accent)"/>
  <rect x="784" y="226" width="184" height="74" rx="20" fill="#FFFFFF" fill-opacity="0.82"/>
  <rect x="784" y="340" width="184" height="74" rx="20" fill="#FFFFFF" fill-opacity="0.82"/>
  <rect x="784" y="454" width="184" height="74" rx="20" fill="#FFFFFF" fill-opacity="0.82"/>
  <path d="M822 263H930" stroke="#10324A" stroke-width="11" stroke-linecap="round"/>
  <path d="M822 377H912" stroke="#10324A" stroke-width="11" stroke-linecap="round"/>
  <path d="M822 491H944" stroke="#10324A" stroke-width="11" stroke-linecap="round"/>
  <circle cx="734" cy="576" r="52" fill="#10324A"/>
  <path d="M714 556L754 596M754 556L714 596" stroke="#FFFFFF" stroke-width="10" stroke-linecap="round"/>
</svg>
