<svg width="1200" height="760" viewBox="0 0 1200 760" fill="none" xmlns="http://www.w3.org/2000/svg">
  <defs>
    <linearGradient id="bg" x1="0" y1="0" x2="1200" y2="760" gradientUnits="userSpaceOnUse"><stop stop-color="#F8FCFF"/><stop offset="1" stop-color="#DDEFF9"/></linearGradient>
    <linearGradient id="night" x1="222" y1="170" x2="798" y2="604" gradientUnits="userSpaceOnUse"><stop stop-color="#10283D"/><stop offset="1" stop-color="#1D6A93"/></linearGradient>
    <filter id="shadow" x="62" y="46" width="1076" height="668" filterUnits="userSpaceOnUse"><feDropShadow dx="0" dy="30" stdDeviation="34" flood-color="#0A2A44" flood-opacity="0.16"/></filter>
  </defs>
  <rect width="1200" height="760" fill="url(#bg)"/>
  <g filter="url(#shadow)"><rect x="122" y="86" width="956" height="588" rx="38" fill="#FFFFFF"/></g>
  <rect x="222" y="180" width="536" height="388" rx="38" fill="url(#night)"/>
  <path d="M306 438H666C690 438 710 458 710 482V568H258V486C258 459 279 438 306 438Z" fill="#FFFFFF" fill-opacity="0.96"/>
  <rect x="334" y="350" width="176" height="92" rx="22" fill="#EAF6FF"/>
  <path d="M258 568H710" stroke="#7DC242" stroke-width="16" stroke-linecap="round"/>
  <circle cx="842" cy="260" r="62" fill="#DFF2CE"/>
  <path d="M862 222C834 230 814 256 814 286C814 296 816 306 820 314C792 306 772 280 772 250C772 216 800 188 834 188C846 188 856 191 866 196C850 200 842 212 842 226C842 242 852 254 862 222Z" fill="#10324A"/>
  <path d="M742 438C790 438 792 374 842 374" stroke="#BFDDF0" stroke-width="10" stroke-linecap="round" stroke-dasharray="2 18"/>
  <rect x="794" y="430" width="204" height="84" rx="26" fill="#F4FAFF" stroke="#BFDDF0" stroke-width="3"/>
  <path d="M838 464H940" stroke="#10324A" stroke-width="12" stroke-linecap="round"/>
  <path d="M838 490H908" stroke="#BFDDF0" stroke-width="10" stroke-linecap="round"/>
</svg>
