<svg width="1200" height="760" viewBox="0 0 1200 760" fill="none" xmlns="http://www.w3.org/2000/svg">
  <defs>
    <linearGradient id="bg" x1="0" y1="0" x2="1200" y2="760" gradientUnits="userSpaceOnUse"><stop stop-color="#FAFCFF"/><stop offset="1" stop-color="#E2F1F8"/></linearGradient>
    <linearGradient id="room" x1="210" y1="150" x2="760" y2="620" gradientUnits="userSpaceOnUse"><stop stop-color="#10324A"/><stop offset="1" stop-color="#1D6A93"/></linearGradient>
    <filter id="shadow" x="62" y="46" width="1076" height="668" filterUnits="userSpaceOnUse"><feDropShadow dx="0" dy="30" stdDeviation="34" flood-color="#0A2A44" flood-opacity="0.16"/></filter>
  </defs>
  <rect width="1200" height="760" fill="url(#bg)"/>
  <g filter="url(#shadow)"><rect x="122" y="86" width="956" height="588" rx="38" fill="#FFFFFF"/></g>
  <path d="M214 568V294L470 164L726 294V568" fill="url(#room)"/>
  <path d="M318 568V408H452V568" fill="#FFFFFF" fill-opacity="0.95"/>
  <path d="M506 568V350H632V568" fill="#EAF6FF" fill-opacity="0.18"/>
  <path d="M292 330H650" stroke="#FFFFFF" stroke-opacity="0.18" stroke-width="2"/>
  <path d="M470 164V568" stroke="#FFFFFF" stroke-opacity="0.16" stroke-width="2"/>
  <circle cx="776" cy="262" r="72" fill="#DFF2CE"/>
  <path d="M748 262C758 240 794 240 804 262C812 280 794 298 776 318C758 298 740 280 748 262Z" fill="#10324A"/>
  <rect x="760" y="396" width="238" height="92" rx="28" fill="#F4FAFF" stroke="#BFDDF0" stroke-width="3"/>
  <path d="M812 442H936" stroke="#10324A" stroke-width="12" stroke-linecap="round"/>
  <path d="M812 468H900" stroke="#BFDDF0" stroke-width="10" stroke-linecap="round"/>
  <circle cx="794" cy="442" r="12" fill="#7DC242"/>
  <path d="M704 402C726 402 730 360 760 360" stroke="#BFDDF0" stroke-width="10" stroke-linecap="round" stroke-dasharray="2 18"/>
</svg>
