<svg width="1200" height="760" viewBox="0 0 1200 760" fill="none" xmlns="http://www.w3.org/2000/svg">
  <defs>
    <linearGradient id="bg" x1="0" y1="0" x2="1200" y2="760" gradientUnits="userSpaceOnUse"><stop stop-color="#FAFCFF"/><stop offset="1" stop-color="#E2F1F8"/></linearGradient>
    <linearGradient id="map" x1="218" y1="162" x2="760" y2="592" gradientUnits="userSpaceOnUse"><stop stop-color="#10324A"/><stop offset="1" stop-color="#1D6A93"/></linearGradient>
    <filter id="shadow" x="62" y="46" width="1076" height="668" filterUnits="userSpaceOnUse"><feDropShadow dx="0" dy="30" stdDeviation="34" flood-color="#0A2A44" flood-opacity="0.16"/></filter>
  </defs>
  <rect width="1200" height="760" fill="url(#bg)"/>
  <g filter="url(#shadow)"><rect x="122" y="86" width="956" height="588" rx="38" fill="#FFFFFF"/></g>
  <rect x="220" y="172" width="530" height="396" rx="40" fill="url(#map)"/>
  <path d="M300 498V330L436 230L572 330V498" fill="#FFFFFF" fill-opacity="0.95"/>
  <path d="M378 498V400H494V498" fill="#EAF6FF"/>
  <circle cx="436" cy="338" r="38" fill="#DFF2CE"/>
  <path d="M436 314V362M412 338H460" stroke="#10324A" stroke-width="9" stroke-linecap="round"/>
  <circle cx="842" cy="276" r="74" fill="#DFF2CE"/>
  <path d="M842 226V284" stroke="#10324A" stroke-width="12" stroke-linecap="round"/>
  <circle cx="842" cy="322" r="8" fill="#10324A"/>
  <path d="M620 340C694 340 714 276 768 276" stroke="#BFDDF0" stroke-width="10" stroke-linecap="round" stroke-dasharray="2 18"/>
  <rect x="782" y="428" width="220" height="88" rx="28" fill="#F4FAFF" stroke="#BFDDF0" stroke-width="3"/>
  <path d="M826 462H948" stroke="#10324A" stroke-width="12" stroke-linecap="round"/>
  <path d="M826 490H900" stroke="#BFDDF0" stroke-width="10" stroke-linecap="round"/>
  <circle cx="804" cy="462" r="12" fill="#7DC242"/>
</svg>
