<svg width="1200" height="760" viewBox="0 0 1200 760" fill="none" xmlns="http://www.w3.org/2000/svg">
  <defs>
    <linearGradient id="bg" x1="0" y1="0" x2="1200" y2="760" gradientUnits="userSpaceOnUse">
      <stop stop-color="#F8FCFF"/>
      <stop offset="0.55" stop-color="#EAF6FF"/>
      <stop offset="1" stop-color="#DCEEF8"/>
    </linearGradient>
    <linearGradient id="paper" x1="238" y1="118" x2="652" y2="656" gradientUnits="userSpaceOnUse">
      <stop stop-color="#FFFFFF"/>
      <stop offset="1" stop-color="#F3FAFE"/>
    </linearGradient>
    <linearGradient id="green" x1="702" y1="166" x2="984" y2="548" gradientUnits="userSpaceOnUse">
      <stop stop-color="#C8F08B"/>
      <stop offset="1" stop-color="#75BB37"/>
    </linearGradient>
    <filter id="shadow" x="68" y="46" width="1064" height="668" filterUnits="userSpaceOnUse" color-interpolation-filters="sRGB">
      <feDropShadow dx="0" dy="30" stdDeviation="34" flood-color="#0A2A44" flood-opacity="0.16"/>
    </filter>
  </defs>
  <rect width="1200" height="760" fill="url(#bg)"/>
  <g filter="url(#shadow)">
    <rect x="128" y="86" width="944" height="588" rx="38" fill="#FFFFFF"/>
  </g>
  <path d="M128 494C306 418 452 474 612 528C760 578 908 578 1072 498V636C1072 657 1055 674 1034 674H166C145 674 128 657 128 636V494Z" fill="#F4FAFF"/>
  <rect x="240" y="146" width="382" height="470" rx="28" fill="url(#paper)" stroke="#BFDDF0" stroke-width="3"/>
  <rect x="302" y="212" width="172" height="22" rx="11" fill="#10324A"/>
  <rect x="302" y="294" width="260" height="16" rx="8" fill="#C7E2F2"/>
  <rect x="302" y="354" width="224" height="16" rx="8" fill="#C7E2F2"/>
  <rect x="302" y="414" width="260" height="16" rx="8" fill="#C7E2F2"/>
  <rect x="302" y="498" width="206" height="48" rx="24" fill="#DFF2CE"/>
  <path d="M326 522H486" stroke="#7DC242" stroke-width="9" stroke-linecap="round"/>
  <circle cx="812" cy="360" r="140" fill="url(#green)"/>
  <circle cx="812" cy="360" r="96" fill="#FFFFFF" fill-opacity="0.92"/>
  <path d="M772 360L802 390L858 322" stroke="#10324A" stroke-width="16" stroke-linecap="round" stroke-linejoin="round"/>
  <rect x="718" y="526" width="242" height="64" rx="32" fill="#10324A"/>
  <path d="M766 558H912" stroke="#FFFFFF" stroke-width="10" stroke-linecap="round"/>
  <path d="M648 318C688 318 682 360 718 360" stroke="#BFDDF0" stroke-width="10" stroke-linecap="round" stroke-dasharray="2 20"/>
</svg>
