<svg width="1200" height="760" viewBox="0 0 1200 760" fill="none" xmlns="http://www.w3.org/2000/svg">
  <defs>
    <linearGradient id="bg" x1="0" y1="0" x2="1200" y2="760" gradientUnits="userSpaceOnUse">
      <stop stop-color="#FAFCFF"/>
      <stop offset="1" stop-color="#E2F1F8"/>
    </linearGradient>
    <linearGradient id="profile" x1="214" y1="156" x2="548" y2="576" gradientUnits="userSpaceOnUse">
      <stop stop-color="#EAF6FF"/>
      <stop offset="1" stop-color="#D6EAF5"/>
    </linearGradient>
    <linearGradient id="blue" x1="656" y1="166" x2="982" y2="580" gradientUnits="userSpaceOnUse">
      <stop stop-color="#1D6A93"/>
      <stop offset="1" stop-color="#10324A"/>
    </linearGradient>
    <filter id="shadow" x="62" y="46" width="1076" height="668" filterUnits="userSpaceOnUse" color-interpolation-filters="sRGB">
      <feDropShadow dx="0" dy="30" stdDeviation="34" flood-color="#0A2A44" flood-opacity="0.16"/>
    </filter>
  </defs>
  <rect width="1200" height="760" fill="url(#bg)"/>
  <g filter="url(#shadow)">
    <rect x="122" y="86" width="956" height="588" rx="38" fill="#FFFFFF"/>
  </g>
  <rect x="232" y="170" width="310" height="410" rx="42" fill="url(#profile)" stroke="#BFDDF0" stroke-width="3"/>
  <circle cx="388" cy="312" r="78" fill="#DFF2CE"/>
  <circle cx="388" cy="282" r="44" fill="#FFFFFF" stroke="#10324A" stroke-width="9"/>
  <path d="M286 528C302 454 338 414 388 414C438 414 474 454 490 528" fill="#FFFFFF" stroke="#10324A" stroke-width="10" stroke-linecap="round"/>
  <rect x="640" y="170" width="328" height="410" rx="42" fill="url(#blue)"/>
  <rect x="696" y="232" width="214" height="64" rx="18" fill="#FFFFFF" fill-opacity="0.95"/>
  <rect x="696" y="354" width="214" height="64" rx="18" fill="#FFFFFF" fill-opacity="0.95"/>
  <rect x="696" y="476" width="214" height="64" rx="18" fill="#FFFFFF" fill-opacity="0.95"/>
  <circle cx="732" cy="264" r="16" fill="#7DC242"/>
  <circle cx="732" cy="386" r="16" fill="#7DC242"/>
  <circle cx="732" cy="508" r="16" fill="#7DC242"/>
  <path d="M764 256H858" stroke="#10324A" stroke-width="10" stroke-linecap="round"/>
  <path d="M764 378H872" stroke="#10324A" stroke-width="10" stroke-linecap="round"/>
  <path d="M764 500H842" stroke="#10324A" stroke-width="10" stroke-linecap="round"/>
  <circle cx="558" cy="184" r="48" fill="#7DC242"/>
  <path d="M538 184L554 200L582 166" stroke="#FFFFFF" stroke-width="9" stroke-linecap="round" stroke-linejoin="round"/>
</svg>
