<svg width="1200" height="760" viewBox="0 0 1200 760" fill="none" xmlns="http://www.w3.org/2000/svg">
  <defs>
    <linearGradient id="bg" x1="0" y1="0" x2="1200" y2="760" gradientUnits="userSpaceOnUse">
      <stop stop-color="#F8FCFF"/>
      <stop offset="1" stop-color="#E1F1F8"/>
    </linearGradient>
    <linearGradient id="home" x1="214" y1="158" x2="710" y2="578" gradientUnits="userSpaceOnUse">
      <stop stop-color="#10324A"/>
      <stop offset="1" stop-color="#1D6A93"/>
    </linearGradient>
    <linearGradient id="phone" x1="778" y1="150" x2="980" y2="606" gradientUnits="userSpaceOnUse">
      <stop stop-color="#183A54"/>
      <stop offset="1" stop-color="#10283D"/>
    </linearGradient>
    <filter id="shadow" x="62" y="46" width="1076" height="668" filterUnits="userSpaceOnUse" color-interpolation-filters="sRGB">
      <feDropShadow dx="0" dy="30" stdDeviation="34" flood-color="#0A2A44" flood-opacity="0.16"/>
    </filter>
  </defs>
  <rect width="1200" height="760" fill="url(#bg)"/>
  <g filter="url(#shadow)">
    <rect x="122" y="86" width="956" height="588" rx="38" fill="#FFFFFF"/>
  </g>
  <path d="M224 558V334L456 164L688 334V558" fill="url(#home)"/>
  <path d="M348 558V418H564V558" fill="#FFFFFF" fill-opacity="0.96"/>
  <path d="M294 364H620" stroke="#FFFFFF" stroke-opacity="0.16" stroke-width="2"/>
  <path d="M456 164V558" stroke="#FFFFFF" stroke-opacity="0.16" stroke-width="2"/>
  <circle cx="456" cy="338" r="58" fill="#DFF2CE"/>
  <path d="M456 258V222M456 454V418M536 338H572M340 338H376" stroke="#7DC242" stroke-width="10" stroke-linecap="round"/>
  <circle cx="456" cy="338" r="19" fill="#10324A"/>
  <rect x="774" y="156" width="218" height="430" rx="42" fill="url(#phone)"/>
  <rect x="804" y="224" width="158" height="262" rx="26" fill="#F4FAFF"/>
  <rect x="838" y="282" width="90" height="18" rx="9" fill="#10324A"/>
  <rect x="838" y="348" width="68" height="18" rx="9" fill="#BFDDF0"/>
  <rect x="838" y="414" width="90" height="18" rx="9" fill="#BFDDF0"/>
  <circle cx="883" cy="534" r="22" fill="#7DC242"/>
  <path d="M704 332C732 332 740 286 784 286" stroke="#BFDDF0" stroke-width="10" stroke-linecap="round" stroke-dasharray="2 18"/>
  <path d="M704 438C746 438 742 396 804 396" stroke="#BFDDF0" stroke-width="10" stroke-linecap="round" stroke-dasharray="2 18"/>
  <circle cx="948" cy="218" r="56" fill="#DFF2CE"/>
  <path d="M924 218L940 234L974 194" stroke="#10324A" stroke-width="9" stroke-linecap="round" stroke-linejoin="round"/>
</svg>
