<svg width="1200" height="760" viewBox="0 0 1200 760" fill="none" xmlns="http://www.w3.org/2000/svg">
  <defs>
    <linearGradient id="bg" x1="0" y1="0" x2="1200" y2="760" gradientUnits="userSpaceOnUse"><stop stop-color="#F8FCFF"/><stop offset="1" stop-color="#DDEFF9"/></linearGradient>
    <linearGradient id="blue" x1="230" y1="162" x2="850" y2="610" gradientUnits="userSpaceOnUse"><stop stop-color="#10324A"/><stop offset="1" stop-color="#1D6A93"/></linearGradient>
    <filter id="shadow" x="62" y="46" width="1076" height="668" filterUnits="userSpaceOnUse"><feDropShadow dx="0" dy="30" stdDeviation="34" flood-color="#0A2A44" flood-opacity="0.16"/></filter>
  </defs>
  <rect width="1200" height="760" fill="url(#bg)"/>
  <g filter="url(#shadow)"><rect x="122" y="86" width="956" height="588" rx="38" fill="#FFFFFF"/></g>
  <path d="M240 570H892V474H766V392H640V310H514V228H388V168H240V570Z" fill="url(#blue)"/>
  <path d="M312 474H766M438 392H640M564 310H514M240 228H388" stroke="#FFFFFF" stroke-opacity="0.2" stroke-width="3"/>
  <path d="M278 190C448 194 578 220 704 306C808 376 880 466 946 554" stroke="#7DC242" stroke-width="18" stroke-linecap="round"/>
  <path d="M278 190C448 194 578 220 704 306C808 376 880 466 946 554" stroke="#DFF2CE" stroke-width="8" stroke-linecap="round"/>
  <circle cx="914" cy="210" r="54" fill="#DFF2CE"/>
  <path d="M890 210L906 226L938 188" stroke="#10324A" stroke-width="9" stroke-linecap="round" stroke-linejoin="round"/>
  <rect x="778" y="320" width="218" height="92" rx="28" fill="#F4FAFF" stroke="#BFDDF0" stroke-width="3"/>
  <path d="M826 356H944" stroke="#10324A" stroke-width="12" stroke-linecap="round"/>
  <path d="M826 384H908" stroke="#BFDDF0" stroke-width="10" stroke-linecap="round"/>
</svg>
